<mxfile host="app.diagrams.net" agent="Mozilla/5.0 (Windows NT 10.0; Win64; x64) AppleWebKit/537.36 (KHTML, like Gecko) Chrome/135.0.0.0 Safari/537.36" version="27.0.6">
  <diagram name="Page-1" id="G1MS4BEMhZZGdKrGg-kR">
    <mxGraphModel dx="898" dy="750" grid="1" gridSize="10" guides="1" tooltips="1" connect="1" arrows="1" fold="1" page="1" pageScale="1" pageWidth="827" pageHeight="1169" math="0" shadow="0">
      <root>
        <mxCell id="0" />
        <mxCell id="1" parent="0" />
        <mxCell id="ILdGlqZtgMftyd_i-rPF-1" value="" style="rounded=0;whiteSpace=wrap;html=1;" parent="1" vertex="1">
          <mxGeometry x="330" y="80" width="350" height="490" as="geometry" />
        </mxCell>
        <mxCell id="ILdGlqZtgMftyd_i-rPF-6" style="rounded=0;orthogonalLoop=1;jettySize=auto;html=1;endArrow=block;endFill=0;" parent="1" source="ILdGlqZtgMftyd_i-rPF-2" target="ILdGlqZtgMftyd_i-rPF-4" edge="1">
          <mxGeometry relative="1" as="geometry" />
        </mxCell>
        <mxCell id="ILdGlqZtgMftyd_i-rPF-8" style="rounded=0;orthogonalLoop=1;jettySize=auto;html=1;entryX=0;entryY=0.5;entryDx=0;entryDy=0;endArrow=none;startFill=0;" parent="1" source="ILdGlqZtgMftyd_i-rPF-2" target="ILdGlqZtgMftyd_i-rPF-7" edge="1">
          <mxGeometry relative="1" as="geometry" />
        </mxCell>
        <mxCell id="ILdGlqZtgMftyd_i-rPF-2" value="Réceptionniste" style="shape=umlActor;verticalLabelPosition=bottom;verticalAlign=top;html=1;outlineConnect=0;" parent="1" vertex="1">
          <mxGeometry x="95" y="364" width="30" height="60" as="geometry" />
        </mxCell>
        <mxCell id="ILdGlqZtgMftyd_i-rPF-12" style="rounded=0;orthogonalLoop=1;jettySize=auto;html=1;entryX=0;entryY=0.5;entryDx=0;entryDy=0;endArrow=none;startFill=0;" parent="1" source="ILdGlqZtgMftyd_i-rPF-4" target="ILdGlqZtgMftyd_i-rPF-9" edge="1">
          <mxGeometry relative="1" as="geometry" />
        </mxCell>
        <mxCell id="ILdGlqZtgMftyd_i-rPF-13" style="rounded=0;orthogonalLoop=1;jettySize=auto;html=1;entryX=0;entryY=0.5;entryDx=0;entryDy=0;endArrow=none;startFill=0;" parent="1" source="ILdGlqZtgMftyd_i-rPF-4" target="ILdGlqZtgMftyd_i-rPF-10" edge="1">
          <mxGeometry relative="1" as="geometry" />
        </mxCell>
        <mxCell id="ILdGlqZtgMftyd_i-rPF-14" style="rounded=0;orthogonalLoop=1;jettySize=auto;html=1;entryX=0;entryY=0.5;entryDx=0;entryDy=0;endArrow=none;startFill=0;" parent="1" source="ILdGlqZtgMftyd_i-rPF-4" target="ILdGlqZtgMftyd_i-rPF-11" edge="1">
          <mxGeometry relative="1" as="geometry" />
        </mxCell>
        <mxCell id="ILdGlqZtgMftyd_i-rPF-4" value="Personnel" style="shape=umlActor;verticalLabelPosition=bottom;verticalAlign=top;html=1;outlineConnect=0;" parent="1" vertex="1">
          <mxGeometry x="200" y="214" width="30" height="60" as="geometry" />
        </mxCell>
        <mxCell id="ILdGlqZtgMftyd_i-rPF-7" value="Visualiser les disponibilités des tables" style="ellipse;whiteSpace=wrap;html=1;" parent="1" vertex="1">
          <mxGeometry x="400" y="425" width="140" height="70" as="geometry" />
        </mxCell>
        <mxCell id="ILdGlqZtgMftyd_i-rPF-9" value="Créer une réservation" style="ellipse;whiteSpace=wrap;html=1;" parent="1" vertex="1">
          <mxGeometry x="400" y="150" width="140" height="70" as="geometry" />
        </mxCell>
        <mxCell id="ILdGlqZtgMftyd_i-rPF-10" value="Annuler une réservation" style="ellipse;whiteSpace=wrap;html=1;" parent="1" vertex="1">
          <mxGeometry x="400" y="240" width="140" height="70" as="geometry" />
        </mxCell>
        <mxCell id="ILdGlqZtgMftyd_i-rPF-11" value="Consulter les réservations existantes" style="ellipse;whiteSpace=wrap;html=1;" parent="1" vertex="1">
          <mxGeometry x="400" y="330" width="140" height="70" as="geometry" />
        </mxCell>
        <mxCell id="ILdGlqZtgMftyd_i-rPF-15" value="&lt;font style=&quot;color: light-dark(rgb(255, 0, 0), rgb(237, 237, 237)); font-size: 14px;&quot;&gt;&lt;b&gt;Logiciel de réservation&lt;/b&gt;&lt;/font&gt;" style="text;html=1;align=center;verticalAlign=middle;whiteSpace=wrap;rounded=0;" parent="1" vertex="1">
          <mxGeometry x="340" y="90" width="170" height="30" as="geometry" />
        </mxCell>
        <mxCell id="9FznoxcNDnIQ5v2ejwhF-1" value="Système soumis à l&#39;authentification" style="shape=note;whiteSpace=wrap;html=1;backgroundOutline=1;darkOpacity=0.05;" vertex="1" parent="1">
          <mxGeometry x="560" y="110" width="110" height="105" as="geometry" />
        </mxCell>
      </root>
    </mxGraphModel>
  </diagram>
</mxfile>
